<mxfile host="app.diagrams.net" modified="2024-06-30T22:48:20.995Z" agent="Mozilla/5.0 (Windows NT 10.0; Win64; x64; rv:127.0) Gecko/20100101 Firefox/127.0" etag="0LblD8tSIMUnlVokhb6h" version="24.6.4" type="github">
  <diagram name="Page-1" id="S494Mbl1U99hLXO4tuKC">
    <mxGraphModel dx="1050" dy="577" grid="1" gridSize="10" guides="1" tooltips="1" connect="1" arrows="1" fold="1" page="1" pageScale="1" pageWidth="850" pageHeight="1100" math="0" shadow="0">
      <root>
        <mxCell id="0" />
        <mxCell id="1" parent="0" />
        <mxCell id="1yQlWujV0UZF_cJfFH2G-1" value="" style="endArrow=none;html=1;rounded=0;" edge="1" parent="1">
          <mxGeometry width="50" height="50" relative="1" as="geometry">
            <mxPoint x="190" y="540" as="sourcePoint" />
            <mxPoint x="190" y="70" as="targetPoint" />
          </mxGeometry>
        </mxCell>
        <mxCell id="1yQlWujV0UZF_cJfFH2G-2" value="User" style="text;html=1;align=center;verticalAlign=middle;resizable=0;points=[];autosize=1;strokeColor=none;fillColor=none;" vertex="1" parent="1">
          <mxGeometry x="175" y="38" width="50" height="30" as="geometry" />
        </mxCell>
        <mxCell id="1yQlWujV0UZF_cJfFH2G-3" value="Browser" style="text;html=1;align=center;verticalAlign=middle;resizable=0;points=[];autosize=1;strokeColor=none;fillColor=none;" vertex="1" parent="1">
          <mxGeometry x="285" y="38" width="70" height="30" as="geometry" />
        </mxCell>
        <mxCell id="1yQlWujV0UZF_cJfFH2G-4" value="Web Server" style="text;html=1;align=center;verticalAlign=middle;resizable=0;points=[];autosize=1;strokeColor=none;fillColor=none;" vertex="1" parent="1">
          <mxGeometry x="410" y="38" width="90" height="30" as="geometry" />
        </mxCell>
        <mxCell id="1yQlWujV0UZF_cJfFH2G-5" value="TradingStrategyService" style="text;html=1;align=center;verticalAlign=middle;resizable=0;points=[];autosize=1;strokeColor=none;fillColor=none;" vertex="1" parent="1">
          <mxGeometry x="510" y="38" width="140" height="30" as="geometry" />
        </mxCell>
        <mxCell id="1yQlWujV0UZF_cJfFH2G-6" value="MarketDataService" style="text;html=1;align=center;verticalAlign=middle;resizable=0;points=[];autosize=1;strokeColor=none;fillColor=none;" vertex="1" parent="1">
          <mxGeometry x="660" y="38" width="120" height="30" as="geometry" />
        </mxCell>
        <mxCell id="1yQlWujV0UZF_cJfFH2G-7" value="login() --&amp;gt;" style="text;html=1;align=center;verticalAlign=middle;resizable=0;points=[];autosize=1;strokeColor=none;fillColor=none;" vertex="1" parent="1">
          <mxGeometry x="195" y="88" width="70" height="30" as="geometry" />
        </mxCell>
        <mxCell id="1yQlWujV0UZF_cJfFH2G-8" value="" style="endArrow=none;html=1;rounded=0;" edge="1" parent="1">
          <mxGeometry width="50" height="50" relative="1" as="geometry">
            <mxPoint x="285" y="530" as="sourcePoint" />
            <mxPoint x="285" y="68" as="targetPoint" />
          </mxGeometry>
        </mxCell>
        <mxCell id="1yQlWujV0UZF_cJfFH2G-9" value="" style="endArrow=none;html=1;rounded=0;" edge="1" parent="1">
          <mxGeometry width="50" height="50" relative="1" as="geometry">
            <mxPoint x="425" y="530" as="sourcePoint" />
            <mxPoint x="425" y="68" as="targetPoint" />
          </mxGeometry>
        </mxCell>
        <mxCell id="1yQlWujV0UZF_cJfFH2G-10" value="" style="endArrow=none;html=1;rounded=0;" edge="1" parent="1">
          <mxGeometry width="50" height="50" relative="1" as="geometry">
            <mxPoint x="550" y="520" as="sourcePoint" />
            <mxPoint x="550" y="68" as="targetPoint" />
          </mxGeometry>
        </mxCell>
        <mxCell id="1yQlWujV0UZF_cJfFH2G-11" value="" style="endArrow=none;html=1;rounded=0;" edge="1" parent="1">
          <mxGeometry width="50" height="50" relative="1" as="geometry">
            <mxPoint x="670" y="520" as="sourcePoint" />
            <mxPoint x="670" y="68" as="targetPoint" />
          </mxGeometry>
        </mxCell>
        <mxCell id="1yQlWujV0UZF_cJfFH2G-12" value="authenticate()" style="text;html=1;align=center;verticalAlign=middle;resizable=0;points=[];autosize=1;strokeColor=none;fillColor=none;" vertex="1" parent="1">
          <mxGeometry x="300" y="110" width="90" height="30" as="geometry" />
        </mxCell>
        <mxCell id="1yQlWujV0UZF_cJfFH2G-13" value="&amp;lt;--authToken()" style="text;html=1;align=center;verticalAlign=middle;resizable=0;points=[];autosize=1;strokeColor=none;fillColor=none;" vertex="1" parent="1">
          <mxGeometry x="290" y="140" width="100" height="30" as="geometry" />
        </mxCell>
        <mxCell id="1yQlWujV0UZF_cJfFH2G-14" value="&amp;lt;--redirect()" style="text;html=1;align=center;verticalAlign=middle;resizable=0;points=[];autosize=1;strokeColor=none;fillColor=none;" vertex="1" parent="1">
          <mxGeometry x="175" y="170" width="90" height="30" as="geometry" />
        </mxCell>
        <mxCell id="1yQlWujV0UZF_cJfFH2G-15" value="--navigateToStrategyPage()--------&amp;gt;" style="text;html=1;align=center;verticalAlign=middle;resizable=0;points=[];autosize=1;strokeColor=none;fillColor=none;" vertex="1" parent="1">
          <mxGeometry x="200" y="210" width="200" height="30" as="geometry" />
        </mxCell>
        <mxCell id="1yQlWujV0UZF_cJfFH2G-16" value="--getStrategyPage()-&amp;gt;" style="text;html=1;align=center;verticalAlign=middle;resizable=0;points=[];autosize=1;strokeColor=none;fillColor=none;" vertex="1" parent="1">
          <mxGeometry x="410" y="228" width="140" height="30" as="geometry" />
        </mxCell>
        <mxCell id="1yQlWujV0UZF_cJfFH2G-18" value="&amp;lt;--strategyPage()" style="text;html=1;align=center;verticalAlign=middle;resizable=0;points=[];autosize=1;strokeColor=none;fillColor=none;" vertex="1" parent="1">
          <mxGeometry x="420" y="258" width="120" height="30" as="geometry" />
        </mxCell>
        <mxCell id="1yQlWujV0UZF_cJfFH2G-19" value="&amp;lt;--displayPage" style="text;html=1;align=center;verticalAlign=middle;resizable=0;points=[];autosize=1;strokeColor=none;fillColor=none;" vertex="1" parent="1">
          <mxGeometry x="180" y="288" width="100" height="30" as="geometry" />
        </mxCell>
        <mxCell id="1yQlWujV0UZF_cJfFH2G-20" value="--defineStrategy()----------------&amp;gt;" style="text;html=1;align=center;verticalAlign=middle;resizable=0;points=[];autosize=1;strokeColor=none;fillColor=none;" vertex="1" parent="1">
          <mxGeometry x="195" y="318" width="190" height="30" as="geometry" />
        </mxCell>
        <mxCell id="1yQlWujV0UZF_cJfFH2G-21" value="validateParameters()---&amp;gt;" style="text;html=1;align=center;verticalAlign=middle;resizable=0;points=[];autosize=1;strokeColor=none;fillColor=none;" vertex="1" parent="1">
          <mxGeometry x="410" y="338" width="150" height="30" as="geometry" />
        </mxCell>
        <mxCell id="1yQlWujV0UZF_cJfFH2G-22" value="&amp;lt;--parametersValid()" style="text;html=1;align=center;verticalAlign=middle;resizable=0;points=[];autosize=1;strokeColor=none;fillColor=none;" vertex="1" parent="1">
          <mxGeometry x="415" y="368" width="130" height="30" as="geometry" />
        </mxCell>
        <mxCell id="1yQlWujV0UZF_cJfFH2G-23" value="--getHistoricalData()-------------------------------&amp;gt;" style="text;html=1;align=center;verticalAlign=middle;resizable=0;points=[];autosize=1;strokeColor=none;fillColor=none;" vertex="1" parent="1">
          <mxGeometry x="410" y="398" width="260" height="30" as="geometry" />
        </mxCell>
        <mxCell id="1yQlWujV0UZF_cJfFH2G-24" value="&amp;lt;--historicalData()----------------------------------" style="text;html=1;align=center;verticalAlign=middle;resizable=0;points=[];autosize=1;strokeColor=none;fillColor=none;" vertex="1" parent="1">
          <mxGeometry x="420" y="428" width="250" height="30" as="geometry" />
        </mxCell>
        <mxCell id="1yQlWujV0UZF_cJfFH2G-26" value="--performBacktest()---&amp;gt;" style="text;html=1;align=center;verticalAlign=middle;resizable=0;points=[];autosize=1;strokeColor=none;fillColor=none;" vertex="1" parent="1">
          <mxGeometry x="415" y="450" width="150" height="30" as="geometry" />
        </mxCell>
        <mxCell id="1yQlWujV0UZF_cJfFH2G-27" value="&amp;lt;--backtestResults()--" style="text;html=1;align=center;verticalAlign=middle;resizable=0;points=[];autosize=1;strokeColor=none;fillColor=none;" vertex="1" parent="1">
          <mxGeometry x="410" y="470" width="140" height="30" as="geometry" />
        </mxCell>
        <mxCell id="1yQlWujV0UZF_cJfFH2G-28" value="&amp;lt;--displayResults------------------" style="text;html=1;align=center;verticalAlign=middle;resizable=0;points=[];autosize=1;strokeColor=none;fillColor=none;" vertex="1" parent="1">
          <mxGeometry x="210" y="488" width="190" height="30" as="geometry" />
        </mxCell>
      </root>
    </mxGraphModel>
  </diagram>
</mxfile>
